<svg width="30" height="24" viewBox="0 0 30 24" fill="none" xmlns="http://www.w3.org/2000/svg">
<path d="M30 2.63715V20.8839C29.9806 20.9615 29.9515 21.039 29.9321 21.1166C29.5928 22.7551 28.6814 23.5113 27.0138 23.5113H2.8044C1.15618 23.5113 0.0121181 22.4449 0.0121181 20.8354C-0.00727273 14.7855 0.00242503 8.73556 0.00242503 2.68563C-0.0108263 2.08407 0.18827 1.49708 0.564757 1.02771C1.16587 0.290863 1.9512 0 2.90135 0C7.67149 0.0193908 12.4319 0.00969599 17.2021 0.00969599C20.5179 0.00969599 23.8337 0.0193914 27.1592 0.00969599C28.3809 0.00969599 29.2438 0.562334 29.7479 1.66761C29.8836 1.96817 29.9127 2.3172 30 2.63715ZM14.9818 2.15238H3.04678C2.23237 2.15238 2.10633 2.26872 2.15481 3.06375C2.26145 4.99313 3.28917 6.39897 4.75317 7.55272C7.30306 9.56936 9.83356 11.6054 12.3835 13.6123C12.9058 14.015 13.453 14.3841 14.022 14.7176C14.3058 14.8937 14.6332 14.9869 14.9673 14.9869C15.3013 14.9869 15.6287 14.8937 15.9126 14.7176C16.4979 14.3834 17.0585 14.0076 17.5899 13.593C20.1204 11.5957 22.6218 9.57906 25.1523 7.5818C26.01 6.89818 26.7276 6.05542 27.2659 5.09978C27.6288 4.49025 27.8167 3.79248 27.8088 3.08314C27.7894 2.22025 27.7313 2.15238 26.8684 2.15238H14.9818ZM27.7797 8.10536C27.3919 8.45439 27.1011 8.75495 26.7714 9.01672C23.921 11.2951 21.1093 13.6414 18.1813 15.8229C15.6508 17.7038 14.2837 17.3645 12.1798 16.1428C11.9187 15.9794 11.6693 15.798 11.4333 15.5999C9.84326 14.3201 8.26291 13.0306 6.66317 11.7508C5.06343 10.471 3.67698 9.39485 2.14511 8.18292V20.4767C2.14511 21.2911 2.23237 21.3784 3.06617 21.3784H26.8781C27.7119 21.3784 27.8088 21.2911 27.8088 20.4767V8.6483C27.8088 8.49317 27.7894 8.34774 27.7797 8.10536Z" fill="white"/>
</svg>
