<svg width="16" height="30" viewBox="0 0 16 30" fill="none" xmlns="http://www.w3.org/2000/svg">
<path d="M4.59521 29.9972V30L10.117 29.9972H10.1323C10.1264 29.9972 10.1323 29.9972 10.1264 29.9972C10.1264 25.5737 10.1244 20.9192 10.1205 16.5003C10.1205 16.3464 10.1678 16.3108 10.3099 16.3166H14.4646C14.4847 16.32 14.505 16.3212 14.5252 16.3206C14.5487 16.32 14.5719 16.3166 14.5948 16.3108C14.6421 16.293 14.7013 16.2517 14.7072 16.2104C14.7308 16.0433 14.7531 15.8734 14.7753 15.7028C14.8035 15.4876 14.8314 15.2705 14.8611 15.0558L15.1097 13.1147C15.1984 12.458 15.2813 11.8069 15.3641 11.1559C15.3743 11.072 15.3779 11.0244 15.3629 10.9968C15.3428 10.9607 15.2897 10.9607 15.1748 10.9607L13.554 10.9595C12.4748 10.9578 11.3967 10.9567 10.3158 10.9607C10.1737 10.9607 10.1205 10.9366 10.1205 10.777C10.1234 10.247 10.1234 9.71771 10.1234 9.18838C10.1234 8.65847 10.1234 8.12857 10.1264 7.59866C10.1274 7.29381 10.1492 6.98953 10.1915 6.68754C10.3158 5.89412 10.7597 5.36765 11.5468 5.14892C11.9531 5.04615 12.3707 4.99678 12.7897 5.0008H15.5595V0.212687C15.2695 0.182833 14.9854 0.147812 14.7013 0.130015C14.0917 0.0886787 13.4821 0.0588247 12.8725 0.0352861C11.967 -0.00605011 11.0615 -0.035904 10.1619 0.0944198C9.26232 0.224744 8.27391 0.532468 7.44532 1.06467C6.13147 1.90517 5.32656 3.11885 4.90638 4.60408C4.67558 5.43884 4.59865 6.29657 4.59269 7.16061C4.58681 8.35649 4.59269 9.55179 4.59269 10.7534C4.59269 10.824 4.5927 10.87 4.58401 10.8998C4.56794 10.9544 4.52208 10.9544 4.39147 10.9544H0.207184C2.27767e-07 10.9544 0 10.9544 0 11.1501V16.1214C0 16.2144 1.40575e-07 16.2615 0.0236823 16.2856C0.0482975 16.3108 0.0986041 16.3108 0.201227 16.3108H4.38558C4.59269 16.3108 4.59269 16.3108 4.59269 16.5181V29.9972C4.59269 29.9972 4.80232 29.9972 4.59521 29.9972Z" fill="white"/>
</svg>
