<svg width="30" height="30" viewBox="0 0 30 30" fill="none" xmlns="http://www.w3.org/2000/svg">
<path d="M8.39 4.195C8.39 6.51184 6.51184 8.39 4.195 8.39C1.87817 8.39 0 6.51184 0 4.195C0 1.87817 1.87817 0 4.195 0C6.51184 0 8.39 1.87817 8.39 4.195Z" fill="white"/>
<path d="M15.5069 10.0803C16.2556 10.0803 16.6263 10.4662 16.6337 11.2216V12.0016C16.6337 12.1393 16.8128 12.1991 16.8994 12.0918C17.5305 11.315 18.2424 10.7456 19.1245 10.3695C20.0003 10.0033 20.9021 9.83449 21.819 9.78779C22.3692 9.75993 22.9248 9.77632 23.4836 9.82057C24.6772 9.92462 25.8114 10.2507 26.7974 10.9627C28.1615 11.9484 28.8806 13.3347 29.3031 14.9136C29.6886 16.3671 29.7702 17.864 29.7849 19.3544C29.8097 21.9795 29.8087 24.6047 29.8076 27.2298L29.8072 28.8062C29.8072 29.6067 29.3994 30 28.5913 30H24.514C23.6763 30 23.3132 29.6518 23.3132 28.821V28.6653L23.3173 25.9058C23.3194 24.803 23.3211 23.7001 23.3184 22.5981C23.3159 21.6198 23.3102 20.6424 23.2983 19.6657L23.2969 19.5903L23.2954 19.5272C23.2755 18.8365 23.1795 18.1491 23.0092 17.4789L23.0059 17.4658C22.6635 16.1295 21.7292 15.3707 20.4284 15.256L20.4145 15.2552L20.3723 15.2511C19.0808 15.1577 17.8813 15.7829 17.285 17.0061L17.2787 17.0193C16.8449 17.8943 16.6239 18.8595 16.6337 19.8361V28.8062C16.6337 29.6223 16.2482 30 15.4327 30H11.4666C10.6809 30 10.2804 29.5993 10.2804 28.8136V11.2519C10.2804 11.2028 10.2819 11.1553 10.2849 11.1086C10.3302 10.4187 10.7136 10.0803 11.4295 10.0803H15.5069Z" fill="white"/>
<path d="M1.23339 28.9078C1.23032 28.8587 1.22878 28.807 1.22878 28.7546V11.3036C1.22878 10.4654 1.61428 10.0803 2.44458 10.0803H6.33653C7.16692 10.0803 7.57454 10.4883 7.57454 11.3331C7.58202 13.6452 7.58202 15.9492 7.58202 18.2614V28.5989C7.58202 28.7276 7.57608 28.8464 7.56379 28.9545C7.48339 29.6616 7.13098 29.9574 6.35916 29.9959C6.29976 29.9984 6.2379 30 6.17348 30H2.4667C1.68147 30 1.2805 29.6485 1.23339 28.9078Z" fill="white"/>
<path d="M8.30068 3.21835C8.41713 3.60098 8.47827 4.00164 8.47909 4.40885L8.47878 4.44818" fill="white"/>
<path d="M8.30068 3.21835C8.1064 2.58009 7.75828 1.99345 7.27917 1.51249Z" fill="white"/>
<path d="M7.27917 1.51249C6.51258 0.743138 5.47295 0.30807 4.38681 0.302335Z" fill="white"/>
<path d="M4.38681 0.302335H4.32885Z" fill="white"/>
<path d="M4.32885 0.302335C2.12319 0.332651 0.287469 2.06473 0.302115 4.38673Z" fill="white"/>
<path d="M0.302115 4.38673C0.302525 4.53175 0.310615 4.67513 0.325773 4.81606Z" fill="white"/>
<path d="M0.325773 4.81606C0.51504 6.61942 1.814 7.99263 3.4838 8.37771Z" fill="white"/>
<path d="M3.4838 8.37771C3.77712 8.44654 4.08223 8.48423 4.40166 8.48669Z" fill="white"/>
</svg>
