<svg width="2000" height="396" viewBox="0 0 2000 396" fill="none" xmlns="http://www.w3.org/2000/svg">
<path d="M0 395.544H193.097C197.593 395.544 198.54 395.544 204.321 395.544C252.888 395.544 292.26 356.172 292.26 307.605C292.26 259.037 252.888 219.666 204.321 219.666C203.718 219.666 203.117 219.672 202.518 219.684C202.337 219.672 202.155 219.666 201.972 219.666H35.1767L0 395.544Z" fill="url(#paint0_linear_614_4709)"/>
<path d="M42.9937 175.168H121.766L121.817 175.168L121.992 175.168C170.364 175.168 209.577 135.956 209.577 87.5842C209.577 39.2128 170.364 0 121.992 0L121.817 0.00017232L121.766 0H78.1704L42.9937 175.168Z" fill="url(#paint1_linear_614_4709)"/>
<path d="M615.394 125.619H490.763C478.647 125.619 473.8 129.773 471.03 141.89L464.106 175.471H601.892L592.198 220.476H454.413L446.45 257.519C446.084 259.695 445.852 261.892 445.758 264.097C445.758 271.367 449.566 273.79 459.26 273.79H585.275L575.235 320.873H407.33C388.29 320.873 377.558 310.487 377.558 293.869C377.578 290.497 377.926 287.135 378.596 283.83L414.254 115.925C419.793 89.9606 432.949 78.5362 458.913 78.5362H625.433L615.394 125.619Z" fill="white"/>
<path d="M870.885 284.868C866.731 304.948 853.922 323.642 818.61 323.642C801.993 323.642 785.375 321.219 777.067 301.486L716.483 159.2C714.405 155.045 712.674 153.314 710.943 153.314C709.212 153.314 706.789 154.007 705.404 160.238L671.131 320.873H615.047L659.014 113.848C665.246 84.0754 687.402 75.7667 713.021 75.7667C730.33 75.7667 746.255 80.2672 753.179 96.5384L814.456 240.209C815.494 242.633 816.187 246.095 819.302 246.095C822.418 246.095 824.149 241.94 824.495 240.209L858.769 78.5362H914.852L870.885 284.868Z" fill="white"/>
<path d="M1154.77 125.619H1030.14C1018.02 125.619 1013.17 129.773 1010.4 141.89L1003.48 175.471H1141.26L1131.57 220.476H993.785L985.822 257.519C985.456 259.695 985.224 261.892 985.13 264.097C985.13 271.367 988.938 273.79 998.631 273.79H1124.65L1114.61 320.873H946.702C927.661 320.873 916.929 310.487 916.929 293.869C916.95 290.497 917.298 287.135 917.968 283.83L953.626 115.925C959.165 89.9606 972.321 78.5362 998.285 78.5362H1164.81L1154.77 125.619Z" fill="white"/>
<path d="M1198.04 115.925C1203.58 89.9606 1216.73 78.5362 1242.7 78.5362H1365.25C1405.41 78.5362 1421.34 101.039 1421.34 139.467C1421.2 147.57 1420.63 155.66 1419.6 163.7C1413.37 206.975 1395.37 241.594 1347.25 241.594H1329.94L1329.59 243.325L1390.18 320.873H1317.13L1272.47 257.865C1265.55 248.172 1257.59 236.747 1257.59 226.708C1257.84 223.793 1258.3 220.901 1258.97 218.053C1262.43 199.704 1276.97 196.242 1299.47 196.242H1319.9C1343.1 196.242 1350.71 184.472 1355.9 160.238C1356.91 155.453 1357.49 150.587 1357.64 145.698C1357.64 131.85 1350.37 127.003 1332.02 127.003H1274.2C1262.09 127.003 1257.24 131.158 1254.47 143.275L1216.73 320.873H1154.42L1198.04 115.925Z" fill="white"/>
<path d="M1590.28 127.003C1541.81 127.003 1522.77 142.582 1510.65 199.704C1508.17 210.735 1506.78 221.982 1506.5 233.285C1506.5 263.404 1522.42 272.405 1559.47 272.405H1585.78C1597.89 272.405 1603.09 268.251 1605.51 256.134L1617.97 197.627H1680.29L1661.77 283.83C1656.4 309.794 1643.07 320.873 1617.28 320.873H1532.12C1467.73 320.873 1442.8 288.33 1442.8 237.093C1442.87 222.212 1444.38 207.373 1447.3 192.781C1462.19 116.271 1488.5 78.5362 1576.78 78.5362H1699.85L1689.46 127.003H1590.28Z" fill="white"/>
<path d="M1930.07 78.5362H2000L1859.79 250.249L1844.56 320.873H1782.76L1798 250.249L1730.83 78.5362H1793.67L1837.29 194.511L1930.07 78.5362Z" fill="white"/>
<defs>
<linearGradient id="paint0_linear_614_4709" x1="2700.21" y1="-299.624" x2="2648.34" y2="530.127" gradientUnits="userSpaceOnUse">
<stop stop-color="white"/>
<stop offset="1" stop-color="#0ABAB5"/>
</linearGradient>
<linearGradient id="paint1_linear_614_4709" x1="2700.21" y1="-299.624" x2="2648.34" y2="530.127" gradientUnits="userSpaceOnUse">
<stop stop-color="white"/>
<stop offset="1" stop-color="#0ABAB5"/>
</linearGradient>
</defs>
</svg>
