<svg width="24" height="24" viewBox="0 0 24 24" fill="none" xmlns="http://www.w3.org/2000/svg">
<path d="M23.35 10.15C23.35 9.59771 22.9023 9.15 22.35 9.15H15.4C14.8477 9.15 14.4 8.70228 14.4 8.15V1C14.4 0.447716 13.9523 0 13.4 0H9.95C9.39772 0 8.95 0.447715 8.95 1V8.15C8.95 8.70228 8.50229 9.15 7.95 9.15H0.999999C0.447714 9.15 0 9.59771 0 10.15V13.25C0 13.8023 0.447715 14.25 1 14.25H7.95C8.50229 14.25 8.95 14.6977 8.95 15.25V22.65C8.95 23.2023 9.39772 23.65 9.95 23.65H13.4C13.9523 23.65 14.4 23.2023 14.4 22.65V15.25C14.4 14.6977 14.8477 14.25 15.4 14.25H22.35C22.9023 14.25 23.35 13.8023 23.35 13.25V10.15Z" fill="url(#paint0_linear_684_3659)"/>
<defs>
<linearGradient id="paint0_linear_684_3659" x1="-2" y1="-13" x2="36.5" y2="43" gradientUnits="userSpaceOnUse">
<stop stop-color="#051218"/>
<stop offset="1" stop-color="#051218" stop-opacity="0"/>
</linearGradient>
</defs>
</svg>
