<svg width="24" height="30" viewBox="0 0 24 30" fill="none" xmlns="http://www.w3.org/2000/svg">
<path d="M22.6189 7.02808C21.244 6.70769 19.9989 5.91725 19.0652 4.77201C18.1315 3.62676 17.5581 2.18658 17.4284 0.661413V0H12.6854V20.5053C12.6824 21.4131 12.4184 22.2971 11.9305 23.033C11.4426 23.769 10.7553 24.3199 9.96515 24.6083C9.17499 24.8968 8.32173 24.9083 7.52525 24.6413C6.72878 24.3742 6.02914 23.842 5.52464 23.1195C5.01231 22.3848 4.72811 21.4915 4.71325 20.5691C4.69839 19.6466 4.95364 18.743 5.44199 17.9893C5.93034 17.2355 6.6264 16.6708 7.42923 16.377C8.23206 16.0832 9.09993 16.0756 9.90698 16.3554V11.106C8.10731 10.835 6.27488 11.1836 4.666 12.1029C3.05713 13.0223 1.75228 14.4664 0.933963 16.2334C0.11565 18.0004 -0.175195 20.0018 0.10211 21.9577C0.379415 23.9136 1.211 25.7262 2.48055 27.1419C3.69124 28.4914 5.24362 29.4172 6.93951 29.8013C8.63541 30.1853 10.3979 30.0101 12.002 29.2981C13.6061 28.5861 14.979 27.3695 15.9455 25.8036C16.912 24.2378 17.4283 22.3937 17.4284 20.5068V10.0292C19.3453 11.522 21.6436 12.3224 23.9999 12.3179V7.18406C23.5358 7.18468 23.073 7.13241 22.6189 7.02808Z" fill="white"/>
</svg>
